<svg width="31" height="30" viewBox="0 0 31 30" fill="none" xmlns="http://www.w3.org/2000/svg">
<rect x="1.3511" y="0.5" width="28.8511" height="28.8511" rx="14.4256" stroke="#BE1B1B"/>
<g clip-path="url(#clip0_1_65)">
<path d="M17.5312 15C17.5312 15.8457 16.8457 16.5312 16 16.5312C15.1543 16.5312 14.4688 15.8457 14.4688 15C14.4688 14.1543 15.1543 13.4688 16 13.4688C16.8457 13.4688 17.5312 14.1543 17.5312 15Z" fill="#BE1B1B"/>
<path d="M19.5811 12.2911C19.5074 12.0917 19.39 11.9111 19.2374 11.7629C19.0892 11.6104 18.9088 11.4929 18.7092 11.4193C18.5474 11.3564 18.3042 11.2816 17.8563 11.2612C17.3718 11.2391 17.2266 11.2344 16 11.2344C14.7733 11.2344 14.6281 11.239 14.1437 11.2611C13.6958 11.2816 13.4525 11.3564 13.2908 11.4193C13.0912 11.4929 12.9106 11.6104 12.7626 11.7629C12.61 11.9111 12.4926 12.0916 12.4188 12.2911C12.356 12.453 12.2811 12.6963 12.2607 13.1442C12.2386 13.6285 12.2339 13.7738 12.2339 15.0005C12.2339 16.2271 12.2386 16.3723 12.2607 16.8568C12.2811 17.3047 12.356 17.5479 12.4188 17.7097C12.4926 17.9093 12.6099 18.0897 12.7625 18.2379C12.9106 18.3905 13.0911 18.5079 13.2906 18.5815C13.4525 18.6445 13.6958 18.7194 14.1437 18.7397C14.6281 18.7618 14.7732 18.7665 15.9999 18.7665C17.2267 18.7665 17.3719 18.7618 17.8562 18.7397C18.3041 18.7194 18.5474 18.6445 18.7092 18.5815C19.1099 18.427 19.4265 18.1104 19.5811 17.7097C19.6439 17.5479 19.7188 17.3047 19.7393 16.8568C19.7614 16.3723 19.766 16.2271 19.766 15.0005C19.766 13.7738 19.7614 13.6285 19.7393 13.1442C19.7189 12.6963 19.644 12.453 19.5811 12.2911ZM16 17.3593C14.6971 17.3593 13.641 16.3032 13.641 15.0004C13.641 13.6975 14.6971 12.6415 16 12.6415C17.3027 12.6415 18.3589 13.6975 18.3589 15.0004C18.3589 16.3032 17.3027 17.3593 16 17.3593ZM18.4521 13.0995C18.1477 13.0995 17.9009 12.8527 17.9009 12.5482C17.9009 12.2438 18.1477 11.9969 18.4521 11.9969C18.7566 11.9969 19.0034 12.2438 19.0034 12.5482C19.0033 12.8527 18.7566 13.0995 18.4521 13.0995Z" fill="#BE1B1B"/>
<path d="M16 7C11.5824 7 8 10.5824 8 15C8 19.4176 11.5824 23 16 23C20.4176 23 24 19.4176 24 15C24 10.5824 20.4176 7 16 7ZM20.566 16.8939C20.5438 17.3829 20.4661 17.7168 20.3525 18.009C20.1139 18.6261 19.6261 19.1139 19.009 19.3525C18.7169 19.4661 18.3829 19.5437 17.894 19.566C17.4042 19.5884 17.2477 19.5938 16.0001 19.5938C14.7524 19.5938 14.5961 19.5884 14.1061 19.566C13.6172 19.5437 13.2832 19.4661 12.9911 19.3525C12.6844 19.2372 12.4069 19.0564 12.1774 18.8226C11.9437 18.5933 11.7629 18.3156 11.6476 18.009C11.5341 17.7169 11.4563 17.3829 11.4341 16.894C11.4115 16.4041 11.4062 16.2476 11.4062 15C11.4062 13.7524 11.4115 13.5959 11.434 13.1061C11.4562 12.6171 11.5338 12.2832 11.6473 11.991C11.7627 11.6844 11.9436 11.4067 12.1774 11.1774C12.4067 10.9436 12.6844 10.7628 12.991 10.6475C13.2832 10.5339 13.6171 10.4563 14.1061 10.434C14.5959 10.4116 14.7524 10.4062 16 10.4062C17.2476 10.4062 17.4041 10.4116 17.8939 10.4341C18.3829 10.4563 18.7168 10.5339 19.009 10.6473C19.3156 10.7627 19.5933 10.9436 19.8228 11.1774C20.0564 11.4069 20.2373 11.6844 20.3525 11.991C20.4662 12.2832 20.5438 12.6171 20.5662 13.1061C20.5885 13.5959 20.5938 13.7524 20.5938 15C20.5938 16.2476 20.5885 16.4041 20.566 16.8939Z" fill="#BE1B1B"/>
</g>
<defs>
<clipPath id="clip0_1_65">
<rect width="16" height="16" fill="white" transform="translate(8 7)"/>
</clipPath>
</defs>
</svg>
