<svg width="31" height="30" viewBox="0 0 31 30" fill="none" xmlns="http://www.w3.org/2000/svg">
<g clip-path="url(#clip0_1_61)">
<g clip-path="url(#clip1_1_61)">
<path d="M16 7C11.5824 7 8 10.5824 8 15C8 19.4176 11.5824 23 16 23C20.4176 23 24 19.4176 24 15C24 10.5824 20.4176 7 16 7ZM13.6753 19.0938H11.7269V13.2321H13.6753V19.0938ZM12.7012 12.4316H12.6885C12.0347 12.4316 11.6118 11.9816 11.6118 11.4191C11.6118 10.8439 12.0476 10.4062 12.7141 10.4062C13.3806 10.4062 13.7908 10.8439 13.8035 11.4191C13.8035 11.9816 13.3806 12.4316 12.7012 12.4316ZM20.7007 19.0938H18.7526V15.9579C18.7526 15.1698 18.4705 14.6323 17.7655 14.6323C17.2273 14.6323 16.9067 14.9949 16.7659 15.3448C16.7144 15.4701 16.7018 15.6451 16.7018 15.8203V19.0938H14.7535C14.7535 19.0938 14.7791 13.782 14.7535 13.2321H16.7018V14.062C16.9607 13.6626 17.424 13.0945 18.4576 13.0945C19.7395 13.0945 20.7007 13.9323 20.7007 15.7327V19.0938Z" fill="#BE1B1B"/>
</g>
</g>
<rect x="1.20221" y="0.5" width="28.8511" height="28.8511" rx="14.4256" stroke="#BE1B1B"/>
<defs>
<clipPath id="clip0_1_61">
<rect x="1.70221" y="1" width="27.8511" height="27.8511" rx="13.9256" fill="white"/>
</clipPath>
<clipPath id="clip1_1_61">
<rect width="16" height="16" fill="white" transform="translate(8 7)"/>
</clipPath>
</defs>
</svg>
