<svg width="50" height="50" viewBox="0 0 50 50" fill="none" xmlns="http://www.w3.org/2000/svg">
<path d="M19.7916 32.4667V17.5333C19.7919 17.3465 19.8425 17.1632 19.938 17.0026C20.0335 16.842 20.1705 16.7101 20.3345 16.6206C20.4985 16.5311 20.6836 16.4874 20.8703 16.4941C21.057 16.5007 21.2385 16.5574 21.3958 16.6583L33.0125 24.1229C33.1596 24.2172 33.2806 24.3469 33.3644 24.5002C33.4482 24.6534 33.4922 24.8253 33.4922 25C33.4922 25.1747 33.4482 25.3466 33.3644 25.4999C33.2806 25.6531 33.1596 25.7828 33.0125 25.8771L21.3958 33.3438C21.2385 33.4447 21.057 33.5014 20.8703 33.508C20.6836 33.5147 20.4985 33.471 20.3345 33.3815C20.1705 33.292 20.0335 33.1601 19.938 32.9995C19.8425 32.8389 19.7919 32.6556 19.7916 32.4688V32.4667Z" fill="white"/>
<path d="M2.08337 24.9999C2.08337 12.3437 12.3438 2.08325 25 2.08325C37.6563 2.08325 47.9167 12.3437 47.9167 24.9999C47.9167 37.6562 37.6563 47.9166 25 47.9166C12.3438 47.9166 2.08337 37.6562 2.08337 24.9999ZM25 5.20825C19.751 5.20825 14.7169 7.29344 11.0052 11.0051C7.29356 14.7168 5.20837 19.7508 5.20837 24.9999C5.20837 30.249 7.29356 35.2831 11.0052 38.9947C14.7169 42.7064 19.751 44.7916 25 44.7916C30.2491 44.7916 35.2832 42.7064 38.9949 38.9947C42.7065 35.2831 44.7917 30.249 44.7917 24.9999C44.7917 19.7508 42.7065 14.7168 38.9949 11.0051C35.2832 7.29344 30.2491 5.20825 25 5.20825Z" fill="white"/>
</svg>
