<svg width="48" height="36" viewBox="0 0 48 36" fill="none" xmlns="http://www.w3.org/2000/svg">
    <path d="M36.8334 21.6667C37.3537 21.6667 37.853 21.5873 38.35 21.515C38.189 22.0563 38.0234 22.607 37.7574 23.1017C37.4914 23.8203 37.076 24.4433 36.663 25.071C36.3177 25.75 35.7087 26.2097 35.2607 26.7907C34.7917 27.3553 34.1524 27.731 33.646 28.2C33.149 28.69 32.498 28.935 31.98 29.2803C31.4387 29.5907 30.9674 29.9337 30.4634 30.097L29.2057 30.615L28.0997 31.0747L29.2314 35.5967L30.6244 35.2607C31.07 35.1487 31.6137 35.018 32.232 34.8617C32.8644 34.745 33.5387 34.4253 34.29 34.1337C35.032 33.8023 35.8907 33.5783 36.6887 33.0463C37.4914 32.5377 38.4177 32.113 39.2344 31.4317C40.0254 30.7293 40.9797 30.1203 41.6844 29.2267C42.4544 28.3913 43.215 27.514 43.8054 26.5153C44.489 25.5633 44.9534 24.518 45.4434 23.4843C45.8867 22.4507 46.2437 21.3937 46.5354 20.367C47.0884 18.309 47.3357 16.3537 47.4314 14.6807C47.5107 13.0053 47.464 11.6123 47.366 10.6043C47.331 10.1283 47.2657 9.66634 47.219 9.34668L47.1607 8.95468L47.1 8.96868C46.685 7.03007 45.7296 5.24858 44.3444 3.83026C42.9592 2.41194 41.2008 1.41476 39.2725 0.954087C37.3443 0.493409 35.325 0.588052 33.4483 1.22707C31.5715 1.86608 29.9141 3.02336 28.6676 4.56502C27.4211 6.10668 26.6366 7.96973 26.4047 9.93866C26.1729 11.9076 26.5031 13.9019 27.3574 15.691C28.2116 17.48 29.5549 18.9907 31.2318 20.0482C32.9088 21.1057 34.8508 21.6668 36.8334 21.6667ZM11.1667 21.6667C11.687 21.6667 12.1864 21.5874 12.6834 21.515C12.5224 22.0563 12.3567 22.607 12.0907 23.1017C11.8247 23.8203 11.4094 24.4433 10.9964 25.071C10.651 25.75 10.042 26.2097 9.59403 26.7907C9.12503 27.3554 8.4857 27.731 7.97937 28.2C7.48236 28.69 6.83136 28.935 6.31336 29.2803C5.77203 29.5907 5.3007 29.9337 4.7967 30.097L3.53903 30.615L2.43303 31.0747L3.5647 35.5967L4.9577 35.2607C5.40337 35.1487 5.94703 35.018 6.56536 34.8617C7.1977 34.745 7.87203 34.4254 8.62336 34.1337C9.36303 33.8 10.224 33.5783 11.022 33.044C11.8247 32.5353 12.751 32.1107 13.5677 31.4293C14.3587 30.727 15.313 30.118 16.0177 29.2267C16.7877 28.3913 17.5484 27.514 18.1387 26.5153C18.8224 25.5633 19.2867 24.518 19.7767 23.4843C20.22 22.4507 20.577 21.3937 20.8687 20.367C21.4217 18.309 21.669 16.3537 21.7647 14.6807C21.844 13.0053 21.7974 11.6123 21.6994 10.6043C21.6644 10.1283 21.599 9.66635 21.5524 9.34668L21.494 8.95468L21.4334 8.96868C21.0184 7.03007 20.063 5.24858 18.6778 3.83026C17.2926 2.41194 15.5341 1.41477 13.6059 0.954089C11.6776 0.493411 9.65832 0.588054 7.7816 1.22707C5.90488 1.86608 4.24742 3.02336 3.00094 4.56502C1.75447 6.10669 0.969919 7.96973 0.738054 9.93866C0.506185 11.9076 0.836477 13.9019 1.69072 15.691C2.54496 17.48 3.88824 18.9907 5.56517 20.0482C7.24211 21.1057 9.18416 21.6668 11.1667 21.6667Z" fill="#BE1B1B"/>
</svg>
    