<svg width="30" height="30" viewBox="0 0 30 30" fill="none" xmlns="http://www.w3.org/2000/svg">
<rect x="0.5" y="0.5" width="28.8511" height="28.8511" rx="14.4256" stroke="#BE1B1B"/>
<path d="M11.0782 17.0889V17.5889H11.5782H12.6454V21.7912C9.60333 20.8944 7.3768 18.076 7.3768 14.7323C7.3768 10.6711 10.6645 7.37695 14.7125 7.37695C18.7605 7.37695 22.0483 10.6711 22.0483 14.7323C22.0483 18.3596 19.4324 21.3682 15.9961 21.9752V17.5889H17.8468H18.3468V17.0889V14.7323V14.2323H17.8468H15.9961V13.1613C15.9961 13.0042 16.126 12.8757 16.2797 12.8757H17.8468H18.3468V12.3757V10.0191V9.5191H17.8468H15.8879C14.0983 9.5191 12.6454 10.9774 12.6454 12.7685V14.2323H11.5782H11.0782V14.7323V17.0889Z" fill="#BE1B1B" stroke="#BE1B1B"/>
</svg>