<svg width="24" height="24" viewBox="0 0 24 24" fill="none" xmlns="http://www.w3.org/2000/svg">
<path d="M4.02774 4.88867H19.9722C20.7235 4.88867 21.3333 5.50592 21.3333 6.26645V17.2887C21.3333 17.6541 21.1899 18.0045 20.9346 18.2629C20.6794 18.5213 20.3332 18.6664 19.9722 18.6664H4.02774C3.66675 18.6664 3.32054 18.5213 3.06529 18.2629C2.81003 18.0045 2.66663 17.6541 2.66663 17.2887V6.26645C2.66663 5.50592 3.2764 4.88867 4.02774 4.88867ZM3.83329 8.36225V17.2887C3.83329 17.3973 3.9204 17.4855 4.02774 17.4855H19.9722C20.0238 17.4855 20.0732 17.4648 20.1097 17.4278C20.1461 17.3909 20.1666 17.3409 20.1666 17.2887V8.36225L12.7622 13.427C12.3017 13.7419 11.6982 13.7419 11.2377 13.427L3.83329 8.36225ZM3.83329 6.26645V6.93723L11.8911 12.4483C11.9232 12.4703 11.9611 12.4821 12 12.4821C12.0388 12.4821 12.0767 12.4703 12.1088 12.4483L20.1666 6.93723V6.26645C20.1666 6.21425 20.1461 6.16418 20.1097 6.12727C20.0732 6.09036 20.0238 6.06962 19.9722 6.06962H4.02774C3.97617 6.06962 3.92671 6.09036 3.89024 6.12727C3.85378 6.16418 3.83329 6.21425 3.83329 6.26645Z" fill="#BE1B1B"/>
</svg>
