<svg width="31" height="30" viewBox="0 0 31 30" fill="none" xmlns="http://www.w3.org/2000/svg">
<rect x="1.05331" y="0.5" width="28.8511" height="28.8511" rx="14.4256" stroke="#BE1B1B"/>
<path d="M14.3795 17.2314L18.4463 14.7127L14.3795 12.1941V17.2314ZM23.4376 10.6577C23.5395 11.0523 23.61 11.5812 23.657 12.2529C23.7119 12.9245 23.7354 13.5038 23.7354 14.0075L23.7824 14.7127C23.7824 16.5513 23.657 17.903 23.4376 18.7677C23.2417 19.5233 22.7873 20.0103 22.082 20.2201C21.7138 20.3293 21.0399 20.4048 20.0056 20.4552C18.9869 20.514 18.0545 20.5392 17.1925 20.5392L15.9467 20.5895C12.6635 20.5895 10.6184 20.4552 9.81129 20.2201C9.10607 20.0103 8.6516 19.5233 8.4557 18.7677C8.35384 18.3731 8.28332 17.8442 8.2363 17.1726C8.18145 16.501 8.15795 15.9217 8.15795 15.418L8.11093 14.7127C8.11093 12.8741 8.2363 11.5225 8.4557 10.6577C8.6516 9.90216 9.10607 9.41522 9.81129 9.20534C10.1796 9.0962 10.8534 9.02064 11.8878 8.97026C12.9064 8.9115 13.8389 8.88631 14.7008 8.88631L15.9467 8.83594C19.2298 8.83594 21.275 8.97026 22.082 9.20534C22.7873 9.41522 23.2417 9.90216 23.4376 10.6577Z" fill="#BE1B1B"/>
</svg>
